<?xml version="1.0" standalone="no"?><!DOCTYPE svg PUBLIC "-//W3C//DTD SVG 1.1//EN" "http://www.w3.org/Graphics/SVG/1.1/DTD/svg11.dtd"><svg t="1555375883958" class="icon" style="" viewBox="0 0 1024 1024" version="1.1" xmlns="http://www.w3.org/2000/svg" p-id="7745" xmlns:xlink="http://www.w3.org/1999/xlink" width="200" height="200"><defs><style type="text/css"></style></defs><path d="M256 955.733333c-66.030933 0-102.4-36.369067-102.4-102.4V341.333333c0-4.420267 1.6896-8.465067 4.4544-11.485866l0.017067-0.017067a7.9872 7.9872 0 0 1 0.529066-0.546133l256-256 0.546134-0.529067 0.017066-0.017067A16.981333 16.981333 0 0 1 426.666667 68.266667h341.333333c66.030933 0 102.4 36.369067 102.4 102.4v682.666666c0 63.368533-33.979733 99.720533-95.6928 102.382934L256 955.733333z m-68.266667-597.333333v494.933333c0 47.223467 21.0432 68.266667 68.266667 68.266667h517.973333c42.871467-1.860267 62.293333-22.920533 62.293334-68.266667V170.666667c0-47.223467-21.0432-68.266667-68.266667-68.266667H443.733333v238.933333a17.066667 17.066667 0 0 1-17.066666 17.066667H187.733333z m24.132267-34.133333H409.6V126.532267L211.8656 324.266667z" p-id="7746"></path><path d="M512 802.133333a34.133333 34.133333 0 0 1-34.133333-34.133333v-46.933333a34.133333 34.133333 0 0 1 68.266666 0V768a34.133333 34.133333 0 0 1-34.133333 34.133333z m0-170.666666a34.133333 34.133333 0 0 1-34.133333-34.133334V341.333333a34.133333 34.133333 0 0 1 68.266666 0v256a34.133333 34.133333 0 0 1-34.133333 34.133334z" p-id="7747"></path></svg>