<?xml version="1.0" standalone="no"?><!DOCTYPE svg PUBLIC "-//W3C//DTD SVG 1.1//EN"
  "http://www.w3.org/Graphics/SVG/1.1/DTD/svg11.dtd">
<svg t="1555315190460" class="icon" style="" viewBox="0 0 1025 1024" version="1.1" xmlns="http://www.w3.org/2000/svg"
     p-id="2055" xmlns:xlink="http://www.w3.org/1999/xlink" width="200.1953125" height="200">
<defs>
  <style type="text/css"></style>
</defs>
<path
  d="M450.516401 166.4c13.6 36 52 60.8 92 62.4 11.2 0 12.8 0 23.2 0l8 0 369.6 0c33.6 0 61.6 28.8 61.6 62.4l0 248 0 124 0 186.4c0 33.6-28 62.4-61.6 62.4L80.916401 912c-33.6 0-61.6-28.8-61.6-62.4L19.316401 166.4c0-33.6 28-62.4 61.6-62.4l308 0M388.916401 104.8 388.916401 104.8c29.6 1.6 53.6 37.6 61.6 62.4"
  p-id="2056" fill="#ffd659"></path>
</svg>
