<?xml version="1.0" standalone="no"?><!DOCTYPE svg PUBLIC "-//W3C//DTD SVG 1.1//EN" "http://www.w3.org/Graphics/SVG/1.1/DTD/svg11.dtd"><svg t="1628084286117" class="icon" viewBox="0 0 1024 1024" version="1.1" xmlns="http://www.w3.org/2000/svg" p-id="1934" xmlns:xlink="http://www.w3.org/1999/xlink" width="200" height="200"><defs><style type="text/css"></style></defs><path d="M204.1088 578.4576H128v-106.304C128 267.712 299.6736 102.4 512 102.4c212.3392 0 384 165.2992 384 369.7536v106.304h-110.848v-106.304C785.152 325.632 663.0656 207.36 512 207.36c-151.04 0-273.152 118.3104-273.152 264.7936v106.304h-34.7392z" fill="#AB77D5" p-id="1935"></path><path d="M230.4 486.4h61.44a40.96 40.96 0 0 1 40.96 40.96v302.08a40.96 40.96 0 0 1-40.96 40.96H230.4a102.4 102.4 0 0 1-102.4-102.4V588.8a102.4 102.4 0 0 1 102.4-102.4z" fill="#D58CFF" p-id="1936"></path><path d="M256 486.4h51.2a25.6 25.6 0 0 1 25.6 25.6v332.8a25.6 25.6 0 0 1-25.6 25.6h-51.2V486.4z" fill="#AB77D5" opacity=".592" p-id="1937"></path><path d="M793.6 486.4h-61.44a40.96 40.96 0 0 0-40.96 40.96v302.08a40.96 40.96 0 0 0 40.96 40.96H793.6a102.4 102.4 0 0 0 102.4-102.4V588.8a102.4 102.4 0 0 0-102.4-102.4z" fill="#D58CFF" p-id="1938"></path><path d="M716.8 486.4h76.8v384h-76.8a25.6 25.6 0 0 1-25.6-25.6V512a25.6 25.6 0 0 1 25.6-25.6z" fill="#AB77D5" opacity=".592" p-id="1939"></path></svg>