<?xml version="1.0" standalone="no"?><!DOCTYPE svg PUBLIC "-//W3C//DTD SVG 1.1//EN" "http://www.w3.org/Graphics/SVG/1.1/DTD/svg11.dtd"><svg t="1629527386282" class="icon" viewBox="0 0 1024 1024" version="1.1" xmlns="http://www.w3.org/2000/svg" p-id="1306" xmlns:xlink="http://www.w3.org/1999/xlink" width="200" height="200"><defs><style type="text/css"></style></defs><path d="M192 0h448.1536L960 320v576c0 70.6944-57.3056 128-128 128H192C121.3056 1024 64 966.6944 64 896V128C64 57.3056 121.3056 0 192 0z" fill="#FF7440" p-id="1307"></path><path d="M296.9472 716.16v-74.0352h37.1584c23.4624 0 41.92-5.9392 55.3728-17.8176 13.4656-11.8656 20.1984-27.5712 20.1984-47.104 0-19.5456-6.7328-35.2896-20.1984-47.2576C376.0256 517.9776 357.568 512 334.1056 512H256v204.16h40.9472z m37.1584-105.6h-37.1584v-67.008h37.1584c11.4944 0 20.16 3.2 26.0096 9.6 5.8368 6.4 8.7552 14.5152 8.7552 24.32 0 9.6384-2.944 17.5616-8.832 23.7696-5.888 6.2208-14.5408 9.3312-25.9328 9.3312z m145.8176 105.6v-74.0352h37.1584c23.4624 0 41.92-5.9392 55.3856-17.8176 13.4528-11.8656 20.1856-27.5712 20.1856-47.104 0-19.5456-6.7328-35.2896-20.1856-47.2576C559.0016 517.9776 540.544 512 517.0816 512h-78.1056v204.16h40.9472z m37.1584-105.6h-37.1584v-67.008h37.1584c11.4944 0 20.16 3.2 26.0096 9.6 5.8368 6.4 8.7552 14.5152 8.7552 24.32 0 9.6384-2.944 17.5616-8.832 23.7696-5.888 6.2208-14.528 9.3312-25.9328 9.3312z m188.864 105.6V543.5392h58.3296V512H607.5136v31.552h57.4976v172.5952h40.9344z" fill="#FFFFFF" opacity=".9" p-id="1308"></path><path d="M640 0l320 320H768c-70.6944 0-128-57.3056-128-128V0z" fill="#FBA989" p-id="1309"></path></svg>